<svg xmlns="http://www.w3.org/2000/svg" width="134" height="147" fill="none" viewBox="0 0 134 147">
  <g clip-path="url(#clip0_401_2)">
    <path fill="#4C150C" d="M127.05 60.42c-.9-5.77-2.94-8.63-5.37-8.63-1.23 0-1.07 1.19-1.45 2.58-.06.22-.1.44-.08.67 0 .14.28 12.95-8.13 20.33a4.57 4.57 0 0 0-2.9-1.16c-.98 0-2.38.36-3.57 2.1-.34.51-.5 1.05-.6 1.56-4.47-8.48-16.6-30.82-27.17-43.83-1.66-2.04-3.82-3.2-5.56-4.12a10.8 10.8 0 0 1-2.62-1.68c-2.11-2.27-4.27-4.88-6.56-7.66C56.42 12.54 48.3 1.12 33.3.05c-4.7-.33-16.48.86-24.22 8.8C-.84 19-7.02 32.14 14.42 59.12c-.5 2.67-.7 7.72.02 12.86.2 1.49.49 2.96.83 4.37.39 1.63.87 3.2 1.43 4.69 1.5 4 3.6 7.46 6.25 10.24 5.28 5.57 12.6 8.47 21.78 8.63h.99c.8 0 1.6-.02 2.37-.03.47 2.47.28 4.58.09 6.62-.11 1.04-.2 2.12-.2 3.15-.03.55-.55 3.43-1.06 6.22-2.83 15.62-3.42 20.7-2.64 22.58l.1.21c2.95 5.45 11.03 7.4 17.6 7.4 4.32 0 8.44-.8 11.59-2.26 6.88-3.17 8.96-21.34 9.57-33.73.46 2.06.73 4.26.83 6.64.12 2.85-.01 5.65-.13 8.15-.24 5.1-.44 9.11 1.6 11.66 2.46 3.07 12.66 3.16 13.82 3.16 4.28 0 10.02-.55 13.1-3.18 4.65-4 7.6-18.35 4.3-30.18a122.57 122.57 0 0 0-5.47-15.57c.4-.16.76-.32 1.12-.49 9.02-4.23 17.07-15.11 14.73-29.88l-.01.02z"/>
    <path style="mix-blend-mode:color-dodge" fill="url(#paint0_radial_401_2)" d="M84.67 50.58a18.02 18.02 0 1 1-36.05 0 18.02 18.02 0 0 1 36.05 0z"/>
    <path fill="#fff" d="M46.04 137.11c3.55 6.55 18.17 7.9 26.26 4.16 8.7-4.02 8.5-42.25 8.5-42.25 3.72 5.68 4.87 11.61 5.1 17.11.13 2.95 0 5.76-.13 8.31-.22 4.57-.4 8.29 1.1 10.18 1.89 2.35 18.8 3.86 23.68-.32 3.66-3.14 6.83-16.31 3.6-27.87a119.44 119.44 0 0 0-5.68-16.01c-6.4.64-10.38.6-10.5.33-.1-.22 5.37-.46 9.87-1.74-.57-1.25-1.12-2.42-1.65-3.53-.6-1.27-1.2-2.44-1.75-3.55-2.31-4.62-16.78-32.27-28.76-47.02-2.42-2.97-6.27-3.74-8.08-5.68-8.42-9.02-15.23-22.6-28.42-26.8C34.8 1.05 19.66.16 10.35 9.9 1.04 19.63-10.73 34.81 36.5 79.2c17.4 16.34 13.4 23.56 13.4 30.03 0 1.73-4.97 25.25-3.87 27.89z"/>
    <path fill="#B98353" d="M31.15 6.09S5.85 8.87 13.3 34.34c4.42 15.11 16.06 16.78 23.8 12.94 7.07-3.5 17.33-9.94 18.72-18.95.75-4.9-6 6.7-14.8 2.37-8.14-4.02-9.87-24.61-9.87-24.61z" opacity=".15"/>
    <path fill="#4C150C" d="M39.07 6.7C48.27 9.12 55.5 22.1 55 26.75c-.5 4.66-10.53 14-17.43 17.32-7.54 3.64-15.1.87-21.48-12.61-5.76-12.17 6.52-21.48 6.52-21.48s7.25-5.7 16.44-3.28zM36.9 9.78a2.13 2.13 0 0 0-2.68 1.31c-.41 1.1.12 2.3 1.19 2.66a7.94 7.94 0 0 1 4.5 3.36 2.02 2.02 0 0 0 2.9.37c.94-.7 1.16-2.03.49-2.94a11.66 11.66 0 0 0-6.4-4.77v.01zm13.79 15.8c-.07-.36-.36-1.23-1.4-3.1a2.02 2.02 0 0 0-2.82-.72 2.14 2.14 0 0 0-.82 2.87c.82 1.47.99 2.02 1 2.05a2.02 2.02 0 0 0 2.5 1.37 2.14 2.14 0 0 0 1.54-2.48z"/>
    <path fill="#4C150C" d="M121.28 39.69l-.71.08c-4.43.5-5.29-1.45-6.85-5.03l-.46-1.05a1.32 1.32 0 0 0-1.4-.78l-.77.13c-1.6.24-2.9-.02-3.9-.75-2.25-1.7-2.77-5.75-3-7.47l-.06-.47c-.07-.56-.49-1-1.05-1.1l-.46-.1c-2.45-.47-4.53-5.22-5.06-6.84l-.08-.26c-.11-.33-.34-.6-.65-.76l-2.17-1.1-.1-.05a20 20 0 0 0-5.38-1.5c-3.41-.4-6.91.12-10 .58-.68.1-1.38.23-2.13.39l-.6.07c-.92.14-1.81.4-2.57.75-1.43.44-2.86.97-4.26 1.57-2.61 1.14-4.7 2.86-6.71 4.51-.46.4-.93.77-1.4 1.15-1.12.9-2.11 1.73-3.02 2.59l-.11.1c-.42.4-.84.8-1.23 1.21l-.07.08c-.38.4-.76.82-1.17 1.3l-.23.26c-.43.5-.78.94-1.1 1.38-1.77 2.4-2.72 4.82-3.74 7.45l-.44 1.13a30.3 30.3 0 0 1-1.37 2.84c-1.07 2.04-2.17 4.15-2.45 6.58-.43 3.73-.05 7.63.34 10.24.48 3.24 1.03 6.4 2.37 9.53 1.3 3 3.1 6 5.2 8.65 1.5 1.86 3.55 3.02 5.53 4.13l.32.18a9 9 0 0 0 3.94 3.17l.08.04c.1.05.23.08.35.1h.06l.34.04a21.68 21.68 0 0 0 5.7 3.62l1.12.43c.82.31 1.57.57 2.3.81a34.64 34.64 0 0 0 6.17 1.38l1.36.16c1.94.24 3.95.48 6.02.46a19.41 19.41 0 0 0 5.3-.78c1.96-.57 3.79-1.4 5.58-2.18l.1-.05 1.19-.52a16.07 16.07 0 0 0 2.4-1.35c.67-.44 1.33-.95 2.1-1.6l.97-.83.64-.57c.69-.6 1.35-1.2 2-1.72l.87-.65c.5-.36 1-.69 1.5-1.04.77-.5 1.56-1.04 2.33-1.63 1.18-.9 2.07-1.8 2.8-2.8l.14-.18a38.46 38.46 0 0 0 4.9-8.49c.97-2.48 1.18-4.87 1.4-7.45.06-.71.12-1.43.2-2.16.1-.81.24-1.69.38-2.54.4-2.5.82-5.1.43-7.7-.04-.29-.1-.58-.17-.86l-.02-.09-.05-.17-.07-2.48-.02-.73c0-.37-.17-.71-.45-.95a1.32 1.32 0 0 0-1.01-.31l.06-.02zM110.68 16.95c.6-.09 1.2-.34 1.76-.75 1.17-.86 2.9-2.85 1.9-4.89-.88-1.85-3.69-2.67-5.78-2.36-.75.1-1.4.36-1.9.74-1.05.8-1.28 2.42-.57 4.13.75 1.8 2.46 3.46 4.6 3.14zM132.72 16.57a4.04 4.04 0 0 0-4.18-2.15c-.79.12-1.56.45-2.28 1-1.3.97-1.67 2.9-.92 4.7.76 1.8 2.4 2.82 4.15 2.56.56-.08 1.1-.29 1.7-.66 1.66-1.12 2.72-3.35 1.53-5.45zM119.08 22.25a3.08 3.08 0 0 0 1.34-.57c.36-.3.74-.92.73-1.66 0-.5-.2-1.23-1.01-1.93l-.05-.08c-.24-.42-.88-1.55-2.22-1.35a2.4 2.4 0 0 0-1.08.48c-.91.69-1.18 2.05-.65 3.32.54 1.28 1.69 1.99 2.93 1.8l.01-.01zM120.75 25.38c-.67.1-1.31.37-1.88.81-1.81 1.36-2.54 4.6-1.57 6.92.86 2.06 2.88 3.07 5.38 2.7l.48-.08.14-.03c.18-.04.35-.1.5-.22l.12-.08c1.49-1.09 3.68-3.63 2.44-6.23-.95-2-2.98-4.17-5.6-3.78l-.01-.01z"/>
    <path fill="#A15E20" d="M111.53 14.82s2.12-1.55 1.43-2.99c-.69-1.43-4.02-2.08-5.38-1.06-1.36 1.02 1.1 6.1 3.94 4.04l.01.02zM131.01 17.4c-.79-1.39-2.22-1.58-3.58-.55-1.37 1.03.08 4.99 2.67 3.41 0 0 1.84-1.23.9-2.86zM119.51 20.5s.77-.67-.36-1.58c-.34-.27-.56-1.55-1.52-.83-.96.7.06 3.5 1.88 2.4zM120.04 27.62c-1.73 1.3-2.24 7.09 2.7 6.06.01 0 2.71-1.98 1.84-3.8-.87-1.84-2.81-3.57-4.54-2.26zM112.07 44.49a7.5 7.5 0 0 1-3.55-4.63c-8.53 1.19-12.56-7.37-11.74-11.72-5.72-4.36-5.96-9.83-4.9-13.01-.94-.31-1.91-.56-2.91-.67-2.8-.32-5.73.03-8.65.46.5.17.92.42 1.18.77 1.23 1.67-1.93 4.14-1.93 4.14-4.35 2.76-6.81-1.74-5.57-3.49-1.22.4-2.42.85-3.58 1.35-2.93 1.27-5.22 3.43-7.67 5.38-.55.44-1.08.88-1.6 1.33-.44.37-.87.76-1.3 1.15l-.11.1c-.4.38-.8.76-1.17 1.15l-.06.06c-.37.4-.74.79-1.1 1.2l-.21.26a21.4 21.4 0 0 0-3.7 6.21c-.42 1.03-.82 2.1-1.25 3.2a24.9 24.9 0 0 1-1.01 2.17c-.2.36-.38.73-.57 1.1a31.55 31.55 0 0 0-1.13 2.3c.2-.17.42-.3.66-.4a1.73 1.73 0 0 1 1.72.2 5.1 5.1 0 0 1 1.52 2.02c.58 2.17-.41 3.63-1.65 4.32-1.24.68-2.73.6-3.17-.35a3.65 3.65 0 0 1-.2-.53c-.11 2.55.09 5.27.47 7.82.15 1 .3 1.99.49 2.95v.04l.96 1.7 2.04 1.42 2.59.88 2.04.7-1.74-.08-2.08-.1-1.98-.32-1.05-.84.15.53c.23.73.49 1.45.8 2.16a36.23 36.23 0 0 0 4.94 8.2 7.32 7.32 0 0 0 1.25 1.27c.3.26.63.5.96.73.33.23.68.45 1.03.67.53.32 1.07.63 1.62.93l.85.48c-1.3-2.36-.3-4.9 1.43-4.95 2.5-.06 5.98 3.58 5.57 5.9-.28 1.6-1.92 1.9-2.92 1.9 1.78 1.46 3.49 2.88 5.7 3.75a36.12 36.12 0 0 0 9.1 2.5l2.34.28a62.35 62.35 0 0 0 3.58.31 19.06 19.06 0 0 0 4.8-.4 25.1 25.1 0 0 0 4.57-1.53l3.25-1.42c1.1-.48 2.1-1.14 3.08-1.88.32-.25.64-.5.95-.77.88-.74 1.74-1.52 2.59-2.26a28 28 0 0 1 1.07-.9c.75-.6 1.53-1.1 2.3-1.63 1.14-.77 2.28-1.52 3.3-2.42.55-.5 1.08-1.06 1.55-1.7.2-.18.42-.4.63-.64l-.97.42-3.98-.12-5.2-1.56 2.13-3.06-.6-1.64-2.55-2.82a21 21 0 0 0 3 2.45c.9 1.03.9 2.35.77 2.42-.14.07-1.66 2.17-1.66 2.17l5 1.54h.1a2.13 2.13 0 0 1-1.38-1.1c-1.06-2.25 1.07-7.5 3.46-8.48 2.4-.98 2.9 3.92 2.9 3.92-.07 3.05-1.34 4.73-2.74 5.4l1.35-.14 1.26-.58c2.58-3.7 4.86-10.15 4.9-12.99.03-3.4.88-9.47.88-9.47l-.82-1.91a25.2 25.2 0 0 1-8.45-1.84v.03zm-24.9-20.97c.8.25.89.8.93 1 .14.73.47.98.18 1.41-.6.85-1.91-.02-1.91-.02-.46-.3-.74-.7-.83-1.04-.4-1.43.86-1.6 1.64-1.36zm-20.6 35.24a3.05 3.05 0 0 1-1.25 2.58c-1.5 1.25-3.46-.95-3.46-.95a3.6 3.6 0 0 1-1-2.28c-.03-2.78 2.7-3.7 3.79-2.6.68.66 2 1.87 1.94 3.25h-.01zM70 42.47a2.73 2.73 0 0 1-2.26 1.19c-1.73.12-2-2.5-2-2.5-.08-.9.15-1.69.49-2.16 1.44-2 3.88-1.24 4.09.12.13.84.45 2.4-.32 3.36zm-1.94-19.18l-1.33 2.48-4.45 2.74-2.76 3.62-3.23 6.3 2.54-6.6s2.29-3.72 2.78-4.07c.49-.34 4.49-2.56 4.49-2.56l1.7-2.57 3.47-1.58-3.21 2.26v-.01zm19.2 56.17c-.05 1.06-.4 1.5-.96 1.97-1.13.96-2.64-.73-2.64-.73a2.72 2.72 0 0 1-.76-1.74c-.02-2.12 1.48-1.6 2.47-.98 1.02.63 1.94.42 1.89 1.48zm3.19-17.13l-4.22-.08-.73-.33c-.37-.1-.74-.27-1.11-.5l-.93-.43-1.56-.28-1.72-1-2.97-1.24 5.15 1.57.68.18c-1.57-1.8-2.6-4.53-1.87-6.14 1.07-2.4 5.27-1.4 5.27-1.4a4.53 4.53 0 0 1 3.5 3.62c.4 2.1-1 4.25-2.5 5.2l1.53.4 3.84-.77-2.36 1.21v-.01zm4.47-21.37c-.15 1.38-2.83 1.17-2.83 1.17-3.5-.62-2.53-4.13-1.05-4.26 1.48-.13 4.03 1.71 3.88 3.1zm8.02 39.68zm6.4-26.81a2.72 2.72 0 0 1-.93 1.65c-1.68 1.28-2.17-.22-2.27-1.39-.1-1.2-.82-1.81.05-2.4.88-.6 1.43-.6 2.15-.42 1.45.33 1 2.55 1 2.55h.01z"/>
    <path fill="#954A04" d="M119.89 46.65s-3.2.17-5.37-.52l-2.17-.7s2.17 1.92 1.47 6.86-1.73 6.15-2.43 6.5c-.7.35-2.43 3.2-2.43 3.2s1.73-1.46 3.81-.94 5.1 3.8 4 6.5l-1.14 2.69s3.55-6.6 4-9.62c.43-3.03.51-8.5.86-9.62.35-1.13.26-4-.6-4.33v-.02z"/>
    <path fill="#64352C" d="M75.13 17.04c-.36 1.41.3 2.4 1 2.6 0 0-1.03-2.44.74-4.16 0 0-1.38.15-1.74 1.56zM67.4 41.57a4.94 4.94 0 0 1 .29-3.23c-.01 0-1.21.9-1.01 2.47.2 1.56.62 2.1 1.4 2.19.78.1.87-.17.87-.17s-1.28-.22-1.56-1.27zm17.86 38.77a4.22 4.22 0 0 1-1.43-2.38s-.37 1.24.56 2.22c.93.98 1.49 1.14 2.08.8.59-.34.52-.55.52-.55s-1 .5-1.72-.1h-.01zm6.78-39.44c-.5-.35-1.31-1.18-.73-2.78 0 0-.83.68-.67 1.76.16 1.08 1.15 1.49 1.8 1.66.65.17.09-.28-.4-.63zm-6.77 19.52c-2.52-4-.95-7.06-.95-7.06s-1.8-.71-2.08 2.17 3.03 4.9 3.03 4.9zM62.56 75.31s.59 2.76 2.7 3.33c2.12.57 2.62 0 2.62 0s-1.44-.33-2.78-1.1a9.43 9.43 0 0 1-2.54-2.22zM50.84 43.35s-1.44.59-1.6 2.88c-.17 2.3 1.2 2.87 1.2 2.87s-.55-1.63-.36-3.1c.2-1.58.76-2.64.76-2.64zM65.4 60.83c.77-.44.68-.73.68-.73s-1.31.65-2.26-.12a5.58 5.58 0 0 1-1.88-3.13s-.5 1.62.73 2.9c1.22 1.3 1.96 1.5 2.73 1.07zm47.45 1.64s-1.96 1.19-2.78 3.97c-.82 2.78-.16 4 .58 4.18.74.19.38-.24.2-.7-.18-.46-.42-3.6.83-5.21 1.26-1.6 2-1.9 1.16-2.23zm8.46-21.1c-6.19.72-7.44-2.95-9.12-6.76-7.7 1.35-8.96-6.35-9.4-9.87-4.2-.8-6.57-8.16-6.57-8.16l-1.87-.96c-1.07 3.01-.74 7.97 4.96 11.11-.73 4.14.86 12.74 11.03 11.03 1.3 6.91 9.44 7.12 11.07 6.67-.02-.68-.1-2.31-.1-3.06z"/>
    <path fill="#844A04" d="M94.9 17.86s.25 5 2.92 6.64l2.68 1.63s-.78 5.14 1.6 7.98c3.82 4.6 8.25 2.33 8.25 2.33s0 3.35 3.17 5.62 7.4 1.95 7.4 1.95l-.27-1.08s-6.05-.42-7.64-3.63a89.22 89.22 0 0 0-1.87-3.68s-5.48 0-7.44-2.24c-1.96-2.25-1.68-7.87-1.68-7.87s-5.07-2.5-5.25-6.42c-.07-.51-1.87-1.22-1.87-1.22v-.02z"/>
    <path fill="#B98353" d="M51.91 43.1c.48-3.03 2.53-5.77 3.64-8.57 1.17-2.95 2.06-5.6 3.93-8.13.53-.7 1.1-1.39 1.67-2.03-.45.38-.88.77-1.3 1.17l-.12.1c-.4.38-.79.76-1.17 1.15l-.06.06c-.37.39-.74.79-1.1 1.2l-.21.26c-.35.42-.7.84-1.02 1.3a21.03 21.03 0 0 0-1.76 2.9c-.33.65-.63 1.33-.9 2.01-.44 1.03-.84 2.1-1.27 3.2a24.9 24.9 0 0 1-1.01 2.17l-.57 1.09-.28.55c-.3.58-.6 1.17-.85 1.76.2-.17.42-.31.66-.4a1.73 1.73 0 0 1 1.72.2zM52.36 62.5l2.59.88-.53-1.15c-1.23-2.83-1.76-5.84-2.23-9.04a50 50 0 0 1-.42-3.75c-1.24.68-2.73.6-3.17-.35a3.65 3.65 0 0 1-.2-.53c-.11 2.55.09 5.27.47 7.82.15 1.02.3 2.01.49 3l.95 1.7 2.04 1.41v.01zM110.2 75.05c-2.44 1.94-4.76 4.53-7.69 5.8-1.18.51-2.4 1.07-3.63 1.58-1.72.7-3.51 1.33-5.37 1.6-3.2.49-6.47-.07-9.53-.42a35.7 35.7 0 0 1-9.1-2.5c-2.94-1.17-5.52-5.5-8.04-7.37-2.53-1.87-5.48-.84-7.45-3.3a37.12 37.12 0 0 1-4.11-6.45l-2.08-.1-1.98-.32-1.05-.84.15.53c.23.73.49 1.45.8 2.16a36.23 36.23 0 0 0 4.94 8.2 9.37 9.37 0 0 0 2.2 2c.34.24.69.46 1.04.68.53.32 1.07.63 1.62.93l.85.48c-1.3-2.36-.3-4.9 1.43-4.95 2.5-.06 5.98 3.58 5.57 5.9-.28 1.6-1.92 1.9-2.92 1.9 1.78 1.46 3.49 2.88 5.7 3.75a36.12 36.12 0 0 0 9.1 2.5l2.34.28c.78.1 1.58.18 2.38.24l1.2.07a19.06 19.06 0 0 0 4.8-.4 25.1 25.1 0 0 0 4.57-1.53l3.25-1.42c1.1-.48 2.1-1.14 3.08-1.88.32-.25.64-.5.95-.77.88-.74 1.74-1.52 2.59-2.26a28 28 0 0 1 1.07-.9c.75-.59 1.53-1.1 2.3-1.63 1.14-.77 2.28-1.52 3.3-2.42a11.45 11.45 0 0 0 1.76-1.98l-1.4.97c-.9.59-1.78 1.19-2.64 1.88v-.01z"/>
    <path fill="#954A04" d="M111.14 73.7s-3.38.34-9.97-1.22c-2.5-.59-2.17-1.73-6.93-1.2-4.76.51-4.37 12.97-8.5 11.6-2.58-.86-3.55-3.25-10.3-1.99-2.13.4-2.7-.26-2.7-.26l-2.68 1.04s2.69 3.38 4.59 2.51c1.9-.87 4.5 3.21 8.32 3.38 3.8.17 11.96-.6 15.5-2.34 3.56-1.73 10.76-8.93 12.23-9.88a26.32 26.32 0 0 0 3.54-3.13l-3.1 1.48z"/>
    <path fill="#B98353" d="M68.77 30.97s.63.41.91 0c.14-.2-.02-.33-.08-.67-.02-.1-.06-.36-.44-.48-.37-.1-.97-.03-.78.65.04.16.17.35.4.5zM92.93 29.88c.36.14.96.1.83-.59a.92.92 0 0 0-.36-.52s-.6-.46-.91-.07c-.17.2-.01.33.02.67.01.1.03.36.4.5h.01zM109.4 12.33a.92.92 0 0 0-.36-.52s-.6-.46-.91-.07c-.16.19 0 .33.03.67.01.1.03.36.4.5.36.15.96.1.83-.58h.01zM120.26 30.35c-.2.15-.08.31-.13.66 0 .1-.06.36.27.6.32.21.9.32.94-.38 0-.17-.06-.39-.22-.59 0 0-.47-.59-.86-.29zM128.72 17.93c-.21-.33-.71-.66-1.01-.02a.93.93 0 0 0-.03.63s.2.72.68.6c.24-.06.2-.26.38-.56.05-.09.19-.3-.02-.65zM117.63 18.87c-.04.07-.05.2 0 .4 0 0 .1.52.36.59.13.04.2-.05.28-.19.03-.04.02-.2-.1-.47-.1-.28-.38-.64-.54-.33zM77.06 41.6c.18-.08.38-.25.52-.52 0 0 .4-.77-.1-1.04-.25-.14-.37.06-.76.17-.11.03-.41.11-.5.56-.1.44.08 1.11.83.82zM61.62 67.1c-.37-.1-.97-.03-.78.65.04.16.17.35.39.49 0 0 .63.41.91 0 .14-.2-.02-.32-.08-.67-.02-.1-.06-.36-.44-.48zM59.6 47.76a.9.9 0 0 0-.28.56s-.12.74.37.83c.24.05.29-.15.58-.35.08-.06.3-.2.25-.6-.05-.4-.37-.9-.91-.44zM86.38 71.03c.24.05.3-.15.58-.35.08-.06.3-.2.25-.6-.05-.4-.37-.9-.9-.44a.9.9 0 0 0-.29.56c.01 0-.1.74.38.83zM84.1 33.8c.12.02.14-.07.29-.18.04-.03.15-.1.13-.3-.03-.19-.2-.45-.46-.22a.46.46 0 0 0-.14.28s-.06.37.19.42h-.01zM86.27 19.3c.12.02.15-.08.29-.18.04-.03.15-.1.13-.3-.03-.2-.2-.45-.46-.22a.46.46 0 0 0-.14.28s-.06.37.19.42h-.01zM101.78 76.52s.6.1.57-.34c-.02-.22-.2-.21-.44-.41-.07-.06-.24-.2-.57-.08-.32.13-.68.53-.17.9.12.07.37-.04.6-.07zM116.24 58.55c-.23 0-.23.2-.46.43-.06.07-.24.24-.12.6.12.33.51.73.9.22.1-.12 0-.4-.02-.63 0 0 .14-.63-.31-.62zM96.63 55.82s.83.14.79-.46c-.02-.3-.27-.29-.6-.56-.1-.08-.33-.29-.78-.1-.44.17-.93.7-.23 1.2.17.12.5-.05.83-.08h-.01zM118.99 48.36c-.1-.08-.33-.29-.78-.1-.44.17-.93.71-.23 1.2.17.12.5-.05.83-.08 0 0 .83.14.79-.46-.02-.3-.27-.29-.6-.56h-.01zM74.33 71.46c.14.03.17-.09.33-.2.05-.03.18-.12.15-.35-.03-.23-.22-.52-.53-.26a.6.6 0 0 0-.17.33s-.07.43.2.48h.02zM77.17 80.06c.18.03.22-.1.43-.27.06-.04.23-.15.2-.45-.05-.3-.29-.67-.7-.33a.68.68 0 0 0-.22.42s-.09.56.28.63h.01zM101.35 49.37c.21.04.26-.13.51-.3.07-.06.27-.19.22-.54-.04-.34-.33-.79-.81-.39a.8.8 0 0 0-.25.5s-.1.66.33.73zM77.9 48.19a.65.65 0 0 0-.2.37s-.07.49.25.55c.16.03.19-.1.38-.23.05-.04.2-.13.17-.4-.03-.25-.24-.58-.6-.28v-.01z"/>
    <path fill="#fff" d="M24.26 89.25c4.3 4.54 10.7 7.76 20.18 7.93h.94c9.04-.04 16.27-.88 21.97-2.06 2.35-.5 4.44-1.03 6.28-1.6a43.58 43.58 0 0 0 8.26-3.4c1.33-.72 2.26-1.38 2.86-1.86.28-.23.54-.46.74-.74.2-.28.31-.57.31-.94 0-1.54-1.93-3.3-3.27-3.48a1.3 1.3 0 0 0-.63.06c-1.54.62-6.65 2.3-11.55 1.69a14.6 14.6 0 0 1-7.63-3.25c-2.56-2.07-4.17-4.54-5.69-5.74-.83-.66-1.64-.94-2.55-.56-3.42 1.43-.95 6.26-.95 6.26s-1.83 2.35-3.4 1.85l-7.47-5.6C32.76 70.36 16.58 58 16.58 58c-.34.32-1.2 6.21-.23 13.15.19 1.35.45 2.75.79 4.17s.8 2.96 1.35 4.43a27.88 27.88 0 0 0 5.77 9.48v.01z"/>
    <path fill="#B98353" d="M54.2 99.11c-1.26.3-2.65.44-4.16.43.6 3.84-.14 6.84-.14 9.69 0 1.73-3.88 23.8-3.32 26.7 0 3.82 10.33 7.63 19 6.9-.24-2.55-3.33-4.91-7.57-5.2-5.2-.34-7.97-2.07-6.24-14.55 1-7.27 2.3-17.79 2.43-23.98v.01zM63.16 91.54c.4.07 1.07.13 1.89.18 19.86-1.2 19.53-4.68 19.53-4.68s-16.06 3.47-20.45 2.08c-7.67-2.42-11.55-11.21-11.55-11.21l.23 1.96s0 2.77 2.09 7.5c-9.01 3.88-16.98 1.74-26.7-3.46-6.97-3.74-8.95-16.36-8.2-23.8.3-2.9 3-6 3-6S8.79 41.5 6.7 28.67c-1.2-7.48-.15-12.3 7.17-21.7-10.62 8.29-21.12 21.78 2.26 50.6.17.22.4.62.4.62-.34.32-1.16 6.02-.2 12.96.2 1.35.46 2.75.8 4.17.35 1.47.8 2.96 1.35 4.43a27.88 27.88 0 0 0 5.78 9.48c4.3 4.54 10.7 7.76 20.18 7.93h.95c1.4 0 2.75-.04 4.07-.08 0 0 9.19-.51 13.7-5.56v.01zM105.85 132.79c-4.5 0-11.44-1.04-13.52-1.04s-2.08-3.81-1.73-14.56c.35-10.75-2.43-16.29-5.2-20.1-2.77-3.81-5.9-3.81-6.93 1.73-1.04 5.55.35 24.26.35 24.26s.1.42.32 1.1c1.75-11.76 1.68-25.15 1.68-25.15 3.7 5.68 4.86 11.61 5.09 17.11.13 2.95 0 5.76-.13 8.31-.22 4.57-.4 8.3 1.1 10.18 1.89 2.35 18.8 3.86 23.68-.32.42-.36.82-.86 1.22-1.46-1.75-.25-4.07-.07-5.92-.07h-.01z" opacity=".15"/>
    <path fill="#4C150C" d="M54.2 99.11a17.28 17.28 0 0 0 9.73-6.03s11.69 1.08 19.38-3.69c-4.41 2.2-13.84 2.55-18.26 2.33a14.7 14.7 0 0 1-1.9-.18c-4.51 5.06-13.7 5.56-13.7 5.56s-4.12 2.13-.28 2.44h.88c1.5 0 2.9-.15 4.16-.43z"/>
    <path fill="#fff" d="M111.4 77.93s-2.32-3.81-4.33-.87c-.79 1.15.41 4.13-2.95 4.75-4.32.8-14.12 1.6-13.8 5.78.34 4.19 13.52 3.5 20.7.14 7.18-3.37 15.77-12.91 13.46-27.5-1.47-9.26-2.42-5.79-2.42-5.79s.52 15.6-10.66 23.48v.01z"/>
    <path fill="#B98353" d="M90.32 87.6s3.42 3.46 7.95 3.07c4.53-.4 17.1-1.37 22.53-12.23 3.77-7.25 4.17-13.05 3.75-16.18l-.42-3.13s2.06 19.56-11.5 25.56c-7.83 3.77-14.44 5.87-22.31 2.9z" opacity=".15"/>
    <path fill="#4C150C" d="M81.89 83.16s-10.7 3.18-17.06-.75c-5.66-4.28-8.09-6.93-8.09-6.93s3.8 7.97 10.28 9.47c6.47 1.5 12.37.92 15.5-1.85M105.51 81.48s-12.6 3.58-14.56 4.74c-1.97 1.16-.46-.8-.46-.8-.01 0 5.3-4.29 15.01-3.94z"/>
  </g>
  <defs>
    <radialGradient id="paint0_radial_401_2" cx="0" cy="0" r="1" gradientTransform="translate(66.65 50.58) scale(18.02)" gradientUnits="userSpaceOnUse">
      <stop stop-color="#E6E7E8"/>
      <stop offset=".08" stop-color="#B8B9B9"/>
      <stop offset=".19" stop-color="#878889"/>
      <stop offset=".29" stop-color="#5E5E5E"/>
      <stop offset=".4" stop-color="#3C3C3C"/>
      <stop offset=".51" stop-color="#212121"/>
      <stop offset=".62" stop-color="#0E0E0F"/>
      <stop offset=".73" stop-color="#030303"/>
      <stop offset=".85"/>
    </radialGradient>
    <clipPath id="clip0_401_2">
      <path fill="#fff" d="M0 0h133.23v146.1H0z"/>
    </clipPath>
  </defs>
</svg>
