<svg xmlns="http://www.w3.org/2000/svg" id="svg62" version="1.1" viewBox="0 0 757.64 896.74">
  <defs id="defs4">
    <style id="style2">
      .cls-2{fill:#e49d75}.cls-6{fill:#a4a4a4}
    </style>
  </defs>
  <g id="Layer_2" data-name="Layer 2">
    <g id="vector">
      <path id="path8" fill="#f1f1f1" d="M636.5 232.73c68.06 61.33 93.17 180.88 67.33 286.61C677.81 625.07 601 717 496 778.29c-105 61.14-238 91.9-326.82 43.86S36.17 647.63 13.78 523.53c-22.2-124.11-22.56-245.67 36.58-305C109.5 159.4 228 162.3 342.79 165.22c114.83 3.1 225.83 6.19 293.71 67.5z"/>
      <path id="rect10" d="M558.8 858.32h22.08v14.74H558.8z" class="cls-2"/>
      <path id="rect12" d="M677.14 835.57h20.72v18.36h-20.72z" class="cls-2" transform="rotate(-38.93 687.47 844.74)"/>
      <rect id="rect14" width="17.47" height="20.69" x="586.33" y="256.37" class="cls-2" rx="8.23"/>
      <path id="path16" fill="#4b8576" fill-opacity="1" d="M602.4 567.42c3 6.88 26 144.94 29.38 158s57.45 98.2 61.13 103.29c1.13 7.37-15.57 19.82-23.49 19.82-7.92-6.26-100.42-140.29-102.64-146.24s-9.67-148.34 35.62-134.86z"/>
      <path id="path18" fill="#257761" fill-opacity="1" d="M505.83 544.55c-1.05 5.7 14.58 136 16.52 153.5s31.89 158.48 34.54 162 22.81 2.76 26.29 1-6.8-147-6.8-157.53 27-107.65 23.53-135.78-94.08-23.2-94.08-23.2z"/>
      <path id="rect20" d="M561.36 386.6h21.11v36.74h-21.11z" class="cls-2"/>
      <rect id="rect22" width="379.57" height="379.57" x="94.97" y="137.85" fill="#e0e0e0" rx="22.42"/>
      <path id="path24" d="M308.48 310.8a35.09 35.09 0 1 0-47.45 0L234 420.41h101.48z" class="cls-6"/>
      <path id="path26" fill="none" stroke="#e0e0e0" stroke-linecap="round" stroke-linejoin="round" stroke-width="32" d="M162.9 137.85a121.86 121.86 0 0 1 243.71 0"/>
      <ellipse id="ellipse28" cx="569.19" cy="353.64" class="cls-2" rx="29" ry="39"/>
      <path id="path30" fill="#fff58c" fill-opacity="1" d="M565.24 415.77c-35.16 0-66.5 97.54-60.48 129.91 1.78 9.56 85.92 28.85 98.78 26.15 4.57-6.22 23.22-156.06-38.3-156.06z"/>
      <path id="path32" fill="#fff58c" fill-opacity="1" d="M556.22 470.1c15.74-11.42-9.42-66.76-15.3-67.71-10.83-1.76-37.76 19-36.9 27.71.44 4.6 36.17 51.63 52.2 40z"/>
      <path id="path34" d="M509 426c-4.24-5.09-14.84-30-16-35.91s-4-94.75-4-100-7-18.54-7-26.46 8.06-18.66 12.16-18.8c4.38 3.1 10.46 21.35 10.74 26 1.53-10 8.77-12.3 10.75-12.3s1.72 15.45-6.48 25.85c.3 7.63 10 83.3 11.57 87.68s19.45 33.09 19.41 35.63-31.15 18.3-31.15 18.3z" class="cls-2"/>
      <path id="rect36" d="M368.05 260.35h358.11v10.23h-358.1z" class="cls-6" transform="rotate(7.78 547.28 265.59)"/>
      <path id="rect38" d="M366.9 247.63h21.9v29.63h-21.9z" class="cls-6" transform="rotate(7.78 377.98 262.55)"/>
      <path id="rect40" d="M397.87 251.17h11.78v29.63h-11.78z" class="cls-6" transform="rotate(7.78 403.85 266.1)"/>
      <path id="path42" d="M604.74 334c-.83-4.74-1.58-39.09-.3-43.94s4.74-8.39 6.29-15.63c.53-2.49-.31-11.11-2-11.47-3.64-.78-3.85 3.3-4.33 6.3-1.86 10.23-5.65 8.36-7.4 8.12s-7.76-1.28-9.73-1.33 3.05 4 1.52 10.47c-1.2 5.1-6.84 39-8 44.55 4.21.17 23.95 2.93 23.95 2.93z" class="cls-2"/>
      <path id="rect44" d="M417.79 253.89h11.78v29.63h-11.78z" class="cls-6" transform="rotate(7.78 423.83 268.8)"/>
      <path id="rect46" d="M368.01 250.51h63.1v10.5H368z" class="cls-6" transform="rotate(7.78 399.68 255.83)"/>
      <path id="path48" d="M734.69 264.08A26.54 26.54 0 1 0 757.4 294a26.54 26.54 0 0 0-22.7-29.92zm14.3 28.74a18.07 18.07 0 1 1-15.44-20.35A18.07 18.07 0 0 1 749 292.82z" class="cls-6"/>
      <path id="path50" d="M509.28 284.31c-1.32-5.17-3.89-9.69-4.31-13.58v.12c-.28-4.66-6.36-22.9-10.74-26-4.1.14-12.16 10.88-12.16 18.8 0 5.81 3.8 14.5 5.82 20.8h21.35z" class="cls-2"/>
      <path id="path52" d="M543.06 329.21c0 13.49 9.52 21.81 24.61 26.45 0 18.46 2.85 19.27 2.85 30.5 0 24.23-4.13 12.12-4.13 53.94 0 25.22 10.56 38.94 30 38.94 23.51 0 37-24.87 37-38.27 0-17-16.82-46.54-18-71.07-1.63-33-11.89-60.61-37.62-60.61-21.98 0-34.71 8.18-34.71 20.12z"/>
      <circle id="circle54" cx="569.16" cy="358.82" r="7.8" class="cls-2"/>
      <path id="path56" fillRule="evenodd" d="M701.29 842.49l12.5 17.06-26.15 37-24.68.16.32-12.5 9.91-4.38 8.8-21.74z"/>
      <path id="polyline58" d="M582.36 871.83v24.9h-73.22v-11.02l48.31-13.88h24.9"/>
    </g>
  </g>
</svg>
